# MagicaVoxel @ Ephtracy

# group
o 

# material
mtllib broken sword.mtl
usemtl palette

# normals
vn -1 0 0
vn 1 0 0
vn 0 0 1
vn 0 0 -1
vn 0 -1 0
vn 0 1 0

# texcoords
vt 0.373047 0.5
vt 0.966797 0.5

# verts
v -0.9 1 0.3
v -0.9 1 -0.2
v -0.9 1.5 0.3
v -0.9 1.5 -0.2
v -0.3 0 0.3
v -0.3 0 -0.2
v -0.3 1 0.3
v -0.3 1 -0.2
v -0.3 1.5 0.2
v -0.3 1.5 -0.1
v -0.3 2.1 0.2
v -0.3 2.1 -0.1
v 0 1.8 0.2
v 0 1.8 -0.1
v 0 2.1 0.2
v 0 2.1 -0.1
v 0.3 0 0.3
v 0.3 0 -0.2
v 0.3 1 0.3
v 0.3 1 -0.2
v 0.3 1.5 0.2
v 0.3 1.5 -0.1
v 0.3 1.8 0.2
v 0.3 1.8 -0.1
v 0.9 1 0.3
v 0.9 1 -0.2
v 0.9 1.5 0.3
v 0.9 1.5 -0.2
v -0.9 1 0.3
v -0.9 1.5 0.3
v -0.3 0 0.3
v -0.3 1 0.3
v 0.3 0 0.3
v 0.3 1 0.3
v 0.9 1 0.3
v 0.9 1.5 0.3
v -0.3 1.5 0.2
v -0.3 2.1 0.2
v 0 1.8 0.2
v 0 2.1 0.2
v 0.3 1.5 0.2
v 0.3 1.8 0.2
v -0.3 1.5 -0.1
v -0.3 2.1 -0.1
v 0 1.8 -0.1
v 0 2.1 -0.1
v 0.3 1.5 -0.1
v 0.3 1.8 -0.1
v -0.9 1 -0.2
v -0.9 1.5 -0.2
v -0.3 0 -0.2
v -0.3 1 -0.2
v 0.3 0 -0.2
v 0.3 1 -0.2
v 0.9 1 -0.2
v 0.9 1.5 -0.2
v -0.3 0 0.3
v 0.3 0 0.3
v -0.3 0 -0.2
v 0.3 0 -0.2
v -0.9 1 0.3
v -0.3 1 0.3
v 0.3 1 0.3
v 0.9 1 0.3
v -0.9 1 -0.2
v -0.3 1 -0.2
v 0.3 1 -0.2
v 0.9 1 -0.2
v -0.9 1.5 0.3
v 0.9 1.5 0.3
v -0.3 1.5 0.2
v 0.3 1.5 0.2
v -0.3 1.5 -0.1
v 0.3 1.5 -0.1
v -0.9 1.5 -0.2
v 0.9 1.5 -0.2
v 0 1.8 0.2
v 0.3 1.8 0.2
v 0 1.8 -0.1
v 0.3 1.8 -0.1
v -0.3 2.1 0.2
v 0 2.1 0.2
v -0.3 2.1 -0.1
v 0 2.1 -0.1

# faces
f 3/1/1 2/1/1 1/1/1
f 4/1/1 2/1/1 3/1/1
f 7/1/1 6/1/1 5/1/1
f 8/1/1 6/1/1 7/1/1
f 11/2/1 10/2/1 9/2/1
f 12/2/1 10/2/1 11/2/1
f 13/2/2 14/2/2 15/2/2
f 15/2/2 14/2/2 16/2/2
f 17/1/2 18/1/2 19/1/2
f 19/1/2 18/1/2 20/1/2
f 21/2/2 22/2/2 23/2/2
f 23/2/2 22/2/2 24/2/2
f 25/1/2 26/1/2 27/1/2
f 27/1/2 26/1/2 28/1/2
f 32/1/3 30/1/3 29/1/3
f 33/1/3 32/1/3 31/1/3
f 34/1/3 30/1/3 32/1/3
f 34/1/3 32/1/3 33/1/3
f 35/1/3 30/1/3 34/1/3
f 36/1/3 30/1/3 35/1/3
f 39/2/3 38/2/3 37/2/3
f 40/2/3 38/2/3 39/2/3
f 41/2/3 39/2/3 37/2/3
f 42/2/3 39/2/3 41/2/3
f 43/2/4 44/2/4 45/2/4
f 45/2/4 44/2/4 46/2/4
f 43/2/4 45/2/4 47/2/4
f 47/2/4 45/2/4 48/2/4
f 49/1/4 50/1/4 52/1/4
f 51/1/4 52/1/4 53/1/4
f 52/1/4 50/1/4 54/1/4
f 53/1/4 52/1/4 54/1/4
f 54/1/4 50/1/4 55/1/4
f 55/1/4 50/1/4 56/1/4
f 59/1/5 58/1/5 57/1/5
f 60/1/5 58/1/5 59/1/5
f 65/1/5 62/1/5 61/1/5
f 66/1/5 62/1/5 65/1/5
f 67/1/5 64/1/5 63/1/5
f 68/1/5 64/1/5 67/1/5
f 69/1/6 70/1/6 71/1/6
f 71/1/6 70/1/6 72/1/6
f 69/1/6 71/1/6 73/1/6
f 72/1/6 70/1/6 74/1/6
f 69/1/6 73/1/6 75/1/6
f 73/1/6 74/1/6 75/1/6
f 74/1/6 70/1/6 76/1/6
f 75/1/6 74/1/6 76/1/6
f 77/2/6 78/2/6 79/2/6
f 79/2/6 78/2/6 80/2/6
f 81/2/6 82/2/6 83/2/6
f 83/2/6 82/2/6 84/2/6
