# MagicaVoxel @ Ephtracy

# group
o 

# material
mtllib brid.mtl
usemtl palette

# normals
vn -1 0 0
vn 1 0 0
vn 0 0 1
vn 0 0 -1
vn 0 -1 0
vn 0 1 0

# texcoords
vt 0.123047 0.5
vt 0.466797 0.5
vt 0.939453 0.5
vt 0.955078 0.5
vt 0.994141 0.5

# verts
v 0.1 1.3 -0.9
v 0.1 1.3 -1.1
v 0.1 1.5 -0.9
v 0.1 1.5 -1.1
v 0.2 1.5 -0.9
v 0.2 1.5 -1
v 0.2 1.6 -0.9
v 0.2 1.6 -1
v 0.4 1.3 -0.9
v 0.4 1.3 -1
v 0.4 1.4 -0.9
v 0.4 1.4 -1
v 0.7 0 -0.8
v 0.7 0 -1.4
v 0.7 0.2 -0.8
v 0.7 0.2 -1.4
v 0.7 1.2 -0.9
v 0.7 1.2 -1.1
v 0.7 1.3 -0.9
v 0.7 1.3 -1
v 0.7 1.3 -1.1
v 0.7 1.5 -1
v 0.7 1.5 -1.1
v 0.8 0.2 -0.9
v 0.8 0.2 -1.1
v 0.8 0.4 -0.9
v 0.8 0.4 -1
v 0.8 0.4 -1.1
v 0.8 0.4 -1.2
v 0.8 0.5 -0.9
v 0.8 0.5 -1
v 0.8 0.5 -1.1
v 0.8 0.5 -1.2
v 0.8 0.8 -0.9
v 0.8 0.8 -1.1
v 0.8 0.9 -0.9
v 0.8 0.9 -1.1
v 0.8 1.2 -0.8
v 0.8 1.2 -0.9
v 0.8 1.2 -1.1
v 0.8 1.2 -1.3
v 0.8 1.3 -0.9
v 0.8 1.3 -1.1
v 0.8 1.4 -1.2
v 0.8 1.4 -1.3
v 0.8 1.5 -0.8
v 0.8 1.5 -0.9
v 0.8 1.5 -1.1
v 0.8 1.5 -1.2
v 0.8 1.7 -0.8
v 0.8 1.7 -0.9
v 0.8 1.7 -1.2
v 0.8 1.8 -0.9
v 0.8 1.8 -1.2
v 0.8 2.1 -0.8
v 0.8 2.1 -1.2
v 0.9 0.7 -0.8
v 0.9 0.7 -0.9
v 0.9 0.8 -0.9
v 0.9 0.9 -0.8
v 0.9 0.9 -0.9
v 0.9 0.9 -1.1
v 0.9 0.9 -1.2
v 0.9 1.2 -0.9
v 0.9 1.2 -1.2
v 0.9 1.6 -0.8
v 0.9 1.6 -0.9
v 0.9 1.6 -1.2
v 0.9 1.7 -0.8
v 0.9 1.7 -0.9
v 0.9 1.7 -1.2
v 0.9 2.1 -0.8
v 0.9 2.1 -1.2
v 0.9 2.2 -0.8
v 0.9 2.2 -1.2
v 1 1.5 -0.9
v 1 1.5 -1.1
v 1 1.6 -0.9
v 1 1.6 -1.1
v 1 1.8 -1.2
v 1 1.8 -1.3
v 1 1.9 -1.2
v 1 1.9 -1.3
v 1.2 0 -0.8
v 1.2 0 -1.4
v 1.2 0.2 -0.8
v 1.2 0.2 -0.9
v 1.2 0.2 -1.1
v 1.2 0.2 -1.4
v 1.2 0.4 -0.9
v 1.2 0.4 -1
v 1.2 0.4 -1.1
v 1.2 0.4 -1.2
v 1.2 0.5 -0.9
v 1.2 0.5 -1
v 1.2 0.5 -1.1
v 1.2 0.5 -1.2
v 1.2 0.7 -0.9
v 1.2 0.7 -1.1
v 1.8 1.3 -0.9
v 1.8 1.3 -1.1
v 1.8 1.4 -0.9
v 1.8 1.4 -1
v 1.8 1.5 -0.9
v 1.8 1.5 -1
v 1.8 1.5 -1.1
v 1.8 1.6 -0.9
v 1.8 1.6 -1
v 0.3 1.3 -0.9
v 0.3 1.3 -1.1
v 0.3 1.4 -0.9
v 0.3 1.4 -1
v 0.3 1.5 -0.9
v 0.3 1.5 -1
v 0.3 1.5 -1.1
v 0.3 1.6 -0.9
v 0.3 1.6 -1
v 0.9 0 -0.8
v 0.9 0 -1.4
v 0.9 0.2 -0.8
v 0.9 0.2 -0.9
v 0.9 0.2 -1.1
v 0.9 0.2 -1.4
v 0.9 0.4 -0.9
v 0.9 0.4 -1
v 0.9 0.4 -1.1
v 0.9 0.4 -1.2
v 0.9 0.5 -0.9
v 0.9 0.5 -1
v 0.9 0.5 -1.1
v 0.9 0.5 -1.2
v 0.9 0.7 -0.9
v 0.9 0.7 -1.1
v 1.1 1.5 -0.9
v 1.1 1.5 -1.1
v 1.1 1.6 -0.9
v 1.1 1.6 -1.1
v 1.1 1.8 -1.2
v 1.1 1.8 -1.3
v 1.1 1.9 -1.2
v 1.1 1.9 -1.3
v 1.2 0.7 -0.8
v 1.2 0.7 -0.9
v 1.2 0.8 -0.9
v 1.2 0.9 -0.8
v 1.2 0.9 -0.9
v 1.2 0.9 -1.1
v 1.2 0.9 -1.2
v 1.2 1.2 -0.9
v 1.2 1.2 -1.2
v 1.2 1.6 -0.8
v 1.2 1.6 -0.9
v 1.2 1.6 -1.2
v 1.2 1.7 -0.8
v 1.2 1.7 -0.9
v 1.2 1.7 -1.2
v 1.2 2.1 -0.8
v 1.2 2.1 -1.2
v 1.2 2.2 -0.8
v 1.2 2.2 -1.2
v 1.3 0.2 -0.9
v 1.3 0.2 -1.1
v 1.3 0.4 -0.9
v 1.3 0.4 -1
v 1.3 0.4 -1.1
v 1.3 0.4 -1.2
v 1.3 0.5 -0.9
v 1.3 0.5 -1
v 1.3 0.5 -1.1
v 1.3 0.5 -1.2
v 1.3 0.8 -0.9
v 1.3 0.8 -1.1
v 1.3 0.9 -0.9
v 1.3 0.9 -1.1
v 1.3 1.2 -0.8
v 1.3 1.2 -0.9
v 1.3 1.2 -1.1
v 1.3 1.2 -1.3
v 1.3 1.3 -0.9
v 1.3 1.3 -1.1
v 1.3 1.4 -1.2
v 1.3 1.4 -1.3
v 1.3 1.5 -0.8
v 1.3 1.5 -0.9
v 1.3 1.5 -1.1
v 1.3 1.5 -1.2
v 1.3 1.7 -0.8
v 1.3 1.7 -0.9
v 1.3 1.7 -1.2
v 1.3 1.8 -0.9
v 1.3 1.8 -1.2
v 1.3 2.1 -0.8
v 1.3 2.1 -1.2
v 1.4 0 -0.8
v 1.4 0 -1.4
v 1.4 0.2 -0.8
v 1.4 0.2 -1.4
v 1.4 1.2 -0.9
v 1.4 1.2 -1.1
v 1.4 1.3 -0.9
v 1.4 1.3 -1
v 1.4 1.3 -1.1
v 1.4 1.5 -1
v 1.4 1.5 -1.1
v 1.7 1.3 -0.9
v 1.7 1.3 -1
v 1.7 1.4 -0.9
v 1.7 1.4 -1
v 1.9 1.5 -0.9
v 1.9 1.5 -1
v 1.9 1.6 -0.9
v 1.9 1.6 -1
v 2 1.3 -0.9
v 2 1.3 -1.1
v 2 1.5 -0.9
v 2 1.5 -1.1
v 0.7 0 -0.8
v 0.7 0.2 -0.8
v 0.8 1.2 -0.8
v 0.8 1.5 -0.8
v 0.8 1.7 -0.8
v 0.8 2.1 -0.8
v 0.9 0 -0.8
v 0.9 0.2 -0.8
v 0.9 0.7 -0.8
v 0.9 0.9 -0.8
v 0.9 1.3 -0.8
v 0.9 1.5 -0.8
v 0.9 1.6 -0.8
v 0.9 1.7 -0.8
v 0.9 2.1 -0.8
v 0.9 2.2 -0.8
v 1.2 0 -0.8
v 1.2 0.2 -0.8
v 1.2 0.7 -0.8
v 1.2 0.9 -0.8
v 1.2 1.3 -0.8
v 1.2 1.5 -0.8
v 1.2 1.6 -0.8
v 1.2 1.7 -0.8
v 1.2 2.1 -0.8
v 1.2 2.2 -0.8
v 1.3 1.2 -0.8
v 1.3 1.5 -0.8
v 1.3 1.7 -0.8
v 1.3 2.1 -0.8
v 1.4 0 -0.8
v 1.4 0.2 -0.8
v 0.1 1.3 -0.9
v 0.1 1.5 -0.9
v 0.2 1.5 -0.9
v 0.2 1.6 -0.9
v 0.3 1.3 -0.9
v 0.3 1.4 -0.9
v 0.3 1.5 -0.9
v 0.3 1.6 -0.9
v 0.4 1.3 -0.9
v 0.4 1.4 -0.9
v 0.7 1.2 -0.9
v 0.7 1.3 -0.9
v 0.8 0.2 -0.9
v 0.8 0.4 -0.9
v 0.8 0.5 -0.9
v 0.8 0.8 -0.9
v 0.8 0.9 -0.9
v 0.8 1.2 -0.9
v 0.8 1.3 -0.9
v 0.8 1.5 -0.9
v 0.9 0.2 -0.9
v 0.9 0.4 -0.9
v 0.9 0.5 -0.9
v 0.9 0.7 -0.9
v 0.9 0.8 -0.9
v 0.9 0.9 -0.9
v 0.9 1.2 -0.9
v 1 1.5 -0.9
v 1 1.6 -0.9
v 1.1 1.5 -0.9
v 1.1 1.6 -0.9
v 1.2 0.2 -0.9
v 1.2 0.4 -0.9
v 1.2 0.5 -0.9
v 1.2 0.7 -0.9
v 1.2 0.8 -0.9
v 1.2 0.9 -0.9
v 1.2 1.2 -0.9
v 1.3 0.2 -0.9
v 1.3 0.4 -0.9
v 1.3 0.5 -0.9
v 1.3 0.8 -0.9
v 1.3 0.9 -0.9
v 1.3 1.2 -0.9
v 1.3 1.3 -0.9
v 1.3 1.5 -0.9
v 1.4 1.2 -0.9
v 1.4 1.3 -0.9
v 1.7 1.3 -0.9
v 1.7 1.4 -0.9
v 1.8 1.3 -0.9
v 1.8 1.4 -0.9
v 1.8 1.5 -0.9
v 1.8 1.6 -0.9
v 1.9 1.5 -0.9
v 1.9 1.6 -0.9
v 2 1.3 -0.9
v 2 1.5 -0.9
v 0.8 0.4 -1
v 0.8 0.5 -1
v 0.9 0.4 -1
v 0.9 0.5 -1
v 1.2 0.4 -1
v 1.2 0.5 -1
v 1.3 0.4 -1
v 1.3 0.5 -1
v 0.2 1.5 -1
v 0.2 1.6 -1
v 0.3 1.4 -1
v 0.3 1.5 -1
v 0.3 1.6 -1
v 0.4 1.3 -1
v 0.4 1.4 -1
v 0.7 1.3 -1
v 0.7 1.5 -1
v 1.4 1.3 -1
v 1.4 1.5 -1
v 1.7 1.3 -1
v 1.7 1.4 -1
v 1.8 1.4 -1
v 1.8 1.5 -1
v 1.8 1.6 -1
v 1.9 1.5 -1
v 1.9 1.6 -1
v 0.1 1.3 -1.1
v 0.1 1.5 -1.1
v 0.3 1.3 -1.1
v 0.3 1.5 -1.1
v 0.7 1.2 -1.1
v 0.7 1.3 -1.1
v 0.7 1.5 -1.1
v 0.8 0.2 -1.1
v 0.8 0.4 -1.1
v 0.8 0.5 -1.1
v 0.8 0.8 -1.1
v 0.8 0.9 -1.1
v 0.8 1.2 -1.1
v 0.8 1.3 -1.1
v 0.8 1.5 -1.1
v 0.9 0.2 -1.1
v 0.9 0.4 -1.1
v 0.9 0.5 -1.1
v 0.9 0.7 -1.1
v 0.9 0.8 -1.1
v 0.9 0.9 -1.1
v 1 1.5 -1.1
v 1 1.6 -1.1
v 1.1 1.5 -1.1
v 1.1 1.6 -1.1
v 1.2 0.2 -1.1
v 1.2 0.4 -1.1
v 1.2 0.5 -1.1
v 1.2 0.7 -1.1
v 1.2 0.8 -1.1
v 1.2 0.9 -1.1
v 1.3 0.2 -1.1
v 1.3 0.4 -1.1
v 1.3 0.5 -1.1
v 1.3 0.8 -1.1
v 1.3 0.9 -1.1
v 1.3 1.2 -1.1
v 1.3 1.3 -1.1
v 1.3 1.5 -1.1
v 1.4 1.2 -1.1
v 1.4 1.3 -1.1
v 1.4 1.5 -1.1
v 1.8 1.3 -1.1
v 1.8 1.5 -1.1
v 2 1.3 -1.1
v 2 1.5 -1.1
v 0.8 0.4 -1.2
v 0.8 0.5 -1.2
v 0.8 1.4 -1.2
v 0.8 1.5 -1.2
v 0.8 1.7 -1.2
v 0.8 1.8 -1.2
v 0.8 2.1 -1.2
v 0.9 0.4 -1.2
v 0.9 0.5 -1.2
v 0.9 0.9 -1.2
v 0.9 1.2 -1.2
v 0.9 1.4 -1.2
v 0.9 1.5 -1.2
v 0.9 1.6 -1.2
v 0.9 1.7 -1.2
v 0.9 1.8 -1.2
v 0.9 1.9 -1.2
v 0.9 2 -1.2
v 0.9 2.1 -1.2
v 0.9 2.2 -1.2
v 1 1.8 -1.2
v 1 1.9 -1.2
v 1 2 -1.2
v 1.1 1.8 -1.2
v 1.1 1.9 -1.2
v 1.1 2 -1.2
v 1.2 0.4 -1.2
v 1.2 0.5 -1.2
v 1.2 0.9 -1.2
v 1.2 1.2 -1.2
v 1.2 1.4 -1.2
v 1.2 1.5 -1.2
v 1.2 1.6 -1.2
v 1.2 1.7 -1.2
v 1.2 1.8 -1.2
v 1.2 1.9 -1.2
v 1.2 2 -1.2
v 1.2 2.1 -1.2
v 1.2 2.2 -1.2
v 1.3 0.4 -1.2
v 1.3 0.5 -1.2
v 1.3 1.4 -1.2
v 1.3 1.5 -1.2
v 1.3 1.7 -1.2
v 1.3 1.8 -1.2
v 1.3 2.1 -1.2
v 0.8 1.2 -1.3
v 0.8 1.4 -1.3
v 1 1.8 -1.3
v 1 1.9 -1.3
v 1.1 1.8 -1.3
v 1.1 1.9 -1.3
v 1.3 1.2 -1.3
v 1.3 1.4 -1.3
v 0.7 0 -1.4
v 0.7 0.2 -1.4
v 0.9 0 -1.4
v 0.9 0.2 -1.4
v 1.2 0 -1.4
v 1.2 0.2 -1.4
v 1.4 0 -1.4
v 1.4 0.2 -1.4
v 0.7 0 -0.8
v 0.9 0 -0.8
v 1.2 0 -0.8
v 1.4 0 -0.8
v 0.7 0 -1.4
v 0.9 0 -1.4
v 1.2 0 -1.4
v 1.4 0 -1.4
v 0.8 0.4 -1.1
v 0.9 0.4 -1.1
v 1.2 0.4 -1.1
v 1.3 0.4 -1.1
v 0.8 0.4 -1.2
v 0.9 0.4 -1.2
v 1.2 0.4 -1.2
v 1.3 0.4 -1.2
v 0.8 0.5 -0.9
v 0.9 0.5 -0.9
v 1.2 0.5 -0.9
v 1.3 0.5 -0.9
v 0.8 0.5 -1
v 0.9 0.5 -1
v 1.2 0.5 -1
v 1.3 0.5 -1
v 0.9 0.7 -0.8
v 1.2 0.7 -0.8
v 0.9 0.7 -0.9
v 1.2 0.7 -0.9
v 0.9 0.7 -1.1
v 1.2 0.7 -1.1
v 0.9 0.9 -1.1
v 1.2 0.9 -1.1
v 0.9 0.9 -1.2
v 1.2 0.9 -1.2
v 0.8 1.2 -0.8
v 1.3 1.2 -0.8
v 0.7 1.2 -0.9
v 0.8 1.2 -0.9
v 0.9 1.2 -0.9
v 1.2 1.2 -0.9
v 1.3 1.2 -0.9
v 1.4 1.2 -0.9
v 0.7 1.2 -1.1
v 0.8 1.2 -1.1
v 1.3 1.2 -1.1
v 1.4 1.2 -1.1
v 0.9 1.2 -1.2
v 1.2 1.2 -1.2
v 0.8 1.2 -1.3
v 1.3 1.2 -1.3
v 0.1 1.3 -0.9
v 0.3 1.3 -0.9
v 0.4 1.3 -0.9
v 0.7 1.3 -0.9
v 1.4 1.3 -0.9
v 1.7 1.3 -0.9
v 1.8 1.3 -0.9
v 2 1.3 -0.9
v 0.4 1.3 -1
v 0.7 1.3 -1
v 1.4 1.3 -1
v 1.7 1.3 -1
v 0.1 1.3 -1.1
v 0.3 1.3 -1.1
v 1.8 1.3 -1.1
v 2 1.3 -1.1
v 0.3 1.4 -0.9
v 0.4 1.4 -0.9
v 1.7 1.4 -0.9
v 1.8 1.4 -0.9
v 0.3 1.4 -1
v 0.4 1.4 -1
v 1.7 1.4 -1
v 1.8 1.4 -1
v 0.9 1.6 -0.8
v 1.2 1.6 -0.8
v 0.9 1.6 -0.9
v 1 1.6 -0.9
v 1.1 1.6 -0.9
v 1.2 1.6 -0.9
v 1 1.6 -1.1
v 1.1 1.6 -1.1
v 0.9 1.6 -1.2
v 1.2 1.6 -1.2
v 0.8 1.7 -0.8
v 0.9 1.7 -0.8
v 1.2 1.7 -0.8
v 1.3 1.7 -0.8
v 0.8 1.7 -0.9
v 0.9 1.7 -0.9
v 1.2 1.7 -0.9
v 1.3 1.7 -0.9
v 0.8 1.7 -1.2
v 0.9 1.7 -1.2
v 1.2 1.7 -1.2
v 1.3 1.7 -1.2
v 1 1.8 -1.2
v 1.1 1.8 -1.2
v 1 1.8 -1.3
v 1.1 1.8 -1.3
v 0.7 0.2 -0.8
v 0.9 0.2 -0.8
v 1.2 0.2 -0.8
v 1.4 0.2 -0.8
v 0.8 0.2 -0.9
v 0.9 0.2 -0.9
v 1.2 0.2 -0.9
v 1.3 0.2 -0.9
v 0.8 0.2 -1.1
v 0.9 0.2 -1.1
v 1.2 0.2 -1.1
v 1.3 0.2 -1.1
v 0.7 0.2 -1.4
v 0.9 0.2 -1.4
v 1.2 0.2 -1.4
v 1.4 0.2 -1.4
v 0.8 0.4 -0.9
v 0.9 0.4 -0.9
v 1.2 0.4 -0.9
v 1.3 0.4 -0.9
v 0.8 0.4 -1
v 0.9 0.4 -1
v 1.2 0.4 -1
v 1.3 0.4 -1
v 0.8 0.5 -1.1
v 0.9 0.5 -1.1
v 1.2 0.5 -1.1
v 1.3 0.5 -1.1
v 0.8 0.5 -1.2
v 0.9 0.5 -1.2
v 1.2 0.5 -1.2
v 1.3 0.5 -1.2
v 0.9 0.9 -0.8
v 1.2 0.9 -0.8
v 0.8 0.9 -0.9
v 0.9 0.9 -0.9
v 1.2 0.9 -0.9
v 1.3 0.9 -0.9
v 0.8 0.9 -1.1
v 0.9 0.9 -1.1
v 1.2 0.9 -1.1
v 1.3 0.9 -1.1
v 0.8 1.4 -1.2
v 0.9 1.4 -1.2
v 1.2 1.4 -1.2
v 1.3 1.4 -1.2
v 0.8 1.4 -1.3
v 1.3 1.4 -1.3
v 0.8 1.5 -0.8
v 0.9 1.5 -0.8
v 1.2 1.5 -0.8
v 1.3 1.5 -0.8
v 0.1 1.5 -0.9
v 0.2 1.5 -0.9
v 0.3 1.5 -0.9
v 0.8 1.5 -0.9
v 1 1.5 -0.9
v 1.1 1.5 -0.9
v 1.3 1.5 -0.9
v 1.8 1.5 -0.9
v 1.9 1.5 -0.9
v 2 1.5 -0.9
v 0.2 1.5 -1
v 0.3 1.5 -1
v 0.7 1.5 -1
v 1.4 1.5 -1
v 1.8 1.5 -1
v 1.9 1.5 -1
v 0.1 1.5 -1.1
v 0.3 1.5 -1.1
v 0.7 1.5 -1.1
v 0.8 1.5 -1.1
v 1 1.5 -1.1
v 1.1 1.5 -1.1
v 1.3 1.5 -1.1
v 1.4 1.5 -1.1
v 1.8 1.5 -1.1
v 2 1.5 -1.1
v 0.8 1.5 -1.2
v 0.9 1.5 -1.2
v 1.2 1.5 -1.2
v 1.3 1.5 -1.2
v 0.2 1.6 -0.9
v 0.3 1.6 -0.9
v 1.8 1.6 -0.9
v 1.9 1.6 -0.9
v 0.2 1.6 -1
v 0.3 1.6 -1
v 1.8 1.6 -1
v 1.9 1.6 -1
v 1 1.9 -1.2
v 1.1 1.9 -1.2
v 1 1.9 -1.3
v 1.1 1.9 -1.3
v 0.8 2.1 -0.8
v 0.9 2.1 -0.8
v 1.2 2.1 -0.8
v 1.3 2.1 -0.8
v 0.8 2.1 -1.2
v 0.9 2.1 -1.2
v 1.2 2.1 -1.2
v 1.3 2.1 -1.2
v 0.9 2.2 -0.8
v 1.2 2.2 -0.8
v 0.9 2.2 -1.2
v 1.2 2.2 -1.2

# faces
f 3/4/1 2/4/1 1/4/1
f 4/4/1 2/4/1 3/4/1
f 7/4/1 6/4/1 5/4/1
f 8/4/1 6/4/1 7/4/1
f 11/4/1 10/4/1 9/4/1
f 12/4/1 10/4/1 11/4/1
f 15/4/1 14/4/1 13/4/1
f 16/4/1 14/4/1 15/4/1
f 19/1/1 18/1/1 17/1/1
f 20/1/1 18/1/1 19/1/1
f 21/1/1 18/1/1 20/1/1
f 22/4/1 21/4/1 20/4/1
f 23/4/1 21/4/1 22/4/1
f 26/4/1 25/4/1 24/4/1
f 27/4/1 25/4/1 26/4/1
f 28/4/1 25/4/1 27/4/1
f 31/4/1 29/4/1 28/4/1
f 31/4/1 28/4/1 27/4/1
f 32/4/1 29/4/1 31/4/1
f 33/4/1 29/4/1 32/4/1
f 34/4/1 31/4/1 30/4/1
f 34/4/1 32/4/1 31/4/1
f 35/4/1 32/4/1 34/4/1
f 36/1/1 35/1/1 34/1/1
f 37/1/1 35/1/1 36/1/1
f 42/1/1 39/1/1 38/1/1
f 43/1/1 41/1/1 40/1/1
f 44/1/1 41/1/1 43/1/1
f 45/1/1 41/1/1 44/1/1
f 46/1/1 42/1/1 38/1/1
f 47/1/1 42/1/1 46/1/1
f 48/1/1 44/1/1 43/1/1
f 49/1/1 44/1/1 48/1/1
f 53/2/1 51/2/1 50/2/1
f 53/4/1 52/4/1 51/4/1
f 54/4/1 52/4/1 53/4/1
f 55/2/1 53/2/1 50/2/1
f 55/2/1 54/2/1 53/2/1
f 56/2/1 54/2/1 55/2/1
f 59/1/1 58/1/1 57/1/1
f 60/1/1 59/1/1 57/1/1
f 61/1/1 59/1/1 60/1/1
f 64/4/1 63/4/1 62/4/1
f 64/4/1 62/4/1 61/4/1
f 65/4/1 63/4/1 64/4/1
f 69/2/1 67/2/1 66/2/1
f 70/4/1 68/4/1 67/4/1
f 70/2/1 67/2/1 69/2/1
f 71/4/1 68/4/1 70/4/1
f 74/2/1 73/2/1 72/2/1
f 75/2/1 73/2/1 74/2/1
f 78/4/1 77/4/1 76/4/1
f 79/4/1 77/4/1 78/4/1
f 82/3/1 81/3/1 80/3/1
f 83/3/1 81/3/1 82/3/1
f 86/4/1 85/4/1 84/4/1
f 87/4/1 85/4/1 86/4/1
f 88/4/1 85/4/1 87/4/1
f 89/4/1 85/4/1 88/4/1
f 90/4/1 88/4/1 87/4/1
f 91/4/1 88/4/1 90/4/1
f 92/4/1 88/4/1 91/4/1
f 95/4/1 93/4/1 92/4/1
f 95/4/1 92/4/1 91/4/1
f 96/4/1 93/4/1 95/4/1
f 97/4/1 93/4/1 96/4/1
f 98/4/1 95/4/1 94/4/1
f 98/4/1 96/4/1 95/4/1
f 99/4/1 96/4/1 98/4/1
f 102/4/1 101/4/1 100/4/1
f 103/4/1 101/4/1 102/4/1
f 105/4/1 101/4/1 103/4/1
f 106/4/1 101/4/1 105/4/1
f 107/4/1 105/4/1 104/4/1
f 108/4/1 105/4/1 107/4/1
f 109/4/2 110/4/2 111/4/2
f 111/4/2 110/4/2 112/4/2
f 112/4/2 110/4/2 114/4/2
f 114/4/2 110/4/2 115/4/2
f 113/4/2 114/4/2 116/4/2
f 116/4/2 114/4/2 117/4/2
f 118/4/2 119/4/2 120/4/2
f 120/4/2 119/4/2 121/4/2
f 121/4/2 119/4/2 122/4/2
f 122/4/2 119/4/2 123/4/2
f 121/4/2 122/4/2 124/4/2
f 124/4/2 122/4/2 125/4/2
f 125/4/2 122/4/2 126/4/2
f 126/4/2 127/4/2 129/4/2
f 125/4/2 126/4/2 129/4/2
f 129/4/2 127/4/2 130/4/2
f 130/4/2 127/4/2 131/4/2
f 128/4/2 129/4/2 132/4/2
f 129/4/2 130/4/2 132/4/2
f 132/4/2 130/4/2 133/4/2
f 134/4/2 135/4/2 136/4/2
f 136/4/2 135/4/2 137/4/2
f 138/3/2 139/3/2 140/3/2
f 140/3/2 139/3/2 141/3/2
f 142/1/2 143/1/2 144/1/2
f 142/1/2 144/1/2 145/1/2
f 145/1/2 144/1/2 146/1/2
f 147/4/2 148/4/2 149/4/2
f 146/4/2 147/4/2 149/4/2
f 149/4/2 148/4/2 150/4/2
f 151/2/2 152/2/2 154/2/2
f 152/4/2 153/4/2 155/4/2
f 154/2/2 152/2/2 155/2/2
f 155/4/2 153/4/2 156/4/2
f 157/2/2 158/2/2 159/2/2
f 159/2/2 158/2/2 160/2/2
f 161/4/2 162/4/2 163/4/2
f 163/4/2 162/4/2 164/4/2
f 164/4/2 162/4/2 165/4/2
f 165/4/2 166/4/2 168/4/2
f 164/4/2 165/4/2 168/4/2
f 168/4/2 166/4/2 169/4/2
f 169/4/2 166/4/2 170/4/2
f 167/4/2 168/4/2 171/4/2
f 168/4/2 169/4/2 171/4/2
f 171/4/2 169/4/2 172/4/2
f 171/1/2 172/1/2 173/1/2
f 173/1/2 172/1/2 174/1/2
f 175/1/2 176/1/2 179/1/2
f 177/1/2 178/1/2 180/1/2
f 180/1/2 178/1/2 181/1/2
f 181/1/2 178/1/2 182/1/2
f 175/1/2 179/1/2 183/1/2
f 183/1/2 179/1/2 184/1/2
f 180/1/2 181/1/2 185/1/2
f 185/1/2 181/1/2 186/1/2
f 187/2/2 188/2/2 190/2/2
f 188/4/2 189/4/2 190/4/2
f 190/4/2 189/4/2 191/4/2
f 187/2/2 190/2/2 192/2/2
f 190/2/2 191/2/2 192/2/2
f 192/2/2 191/2/2 193/2/2
f 194/4/2 195/4/2 196/4/2
f 196/4/2 195/4/2 197/4/2
f 198/1/2 199/1/2 200/1/2
f 200/1/2 199/1/2 201/1/2
f 201/1/2 199/1/2 202/1/2
f 201/4/2 202/4/2 203/4/2
f 203/4/2 202/4/2 204/4/2
f 205/4/2 206/4/2 207/4/2
f 207/4/2 206/4/2 208/4/2
f 209/4/2 210/4/2 211/4/2
f 211/4/2 210/4/2 212/4/2
f 213/4/2 214/4/2 215/4/2
f 215/4/2 214/4/2 216/4/2
f 223/4/3 218/4/3 217/4/3
f 224/4/3 218/4/3 223/4/3
f 227/1/3 220/1/3 219/1/3
f 228/1/3 220/1/3 227/1/3
f 230/2/3 222/2/3 221/2/3
f 231/2/3 222/2/3 230/2/3
f 235/1/3 226/1/3 225/1/3
f 236/1/3 226/1/3 235/1/3
f 237/4/3 228/4/3 227/4/3
f 237/1/3 227/1/3 219/1/3
f 238/4/3 228/4/3 237/4/3
f 239/2/3 232/2/3 231/2/3
f 239/2/3 230/2/3 229/2/3
f 239/2/3 231/2/3 230/2/3
f 240/2/3 232/2/3 239/2/3
f 241/2/3 232/2/3 240/2/3
f 242/2/3 232/2/3 241/2/3
f 243/1/3 238/1/3 237/1/3
f 243/1/3 237/1/3 219/1/3
f 244/1/3 238/1/3 243/1/3
f 245/2/3 241/2/3 240/2/3
f 246/2/3 241/2/3 245/2/3
f 247/4/3 234/4/3 233/4/3
f 248/4/3 234/4/3 247/4/3
f 251/4/3 250/4/3 249/4/3
f 253/4/3 251/4/3 249/4/3
f 253/4/3 252/4/3 251/4/3
f 254/4/3 252/4/3 253/4/3
f 255/4/3 252/4/3 254/4/3
f 256/4/3 252/4/3 255/4/3
f 258/4/3 255/4/3 254/4/3
f 260/4/3 258/4/3 257/4/3
f 266/1/3 260/1/3 259/1/3
f 267/4/3 258/4/3 260/4/3
f 267/1/3 260/1/3 266/1/3
f 268/4/3 255/4/3 258/4/3
f 268/4/3 258/4/3 267/4/3
f 269/4/3 262/4/3 261/4/3
f 270/4/3 262/4/3 269/4/3
f 271/4/3 264/4/3 263/4/3
f 272/4/3 264/4/3 271/4/3
f 273/1/3 265/1/3 264/1/3
f 273/4/3 264/4/3 272/4/3
f 274/1/3 265/1/3 273/1/3
f 278/4/3 277/4/3 276/4/3
f 279/4/3 277/4/3 278/4/3
f 285/4/3 275/4/3 274/4/3
f 286/4/3 275/4/3 285/4/3
f 287/4/3 281/4/3 280/4/3
f 288/4/3 281/4/3 287/4/3
f 289/4/3 284/4/3 283/4/3
f 289/4/3 283/4/3 282/4/3
f 290/1/3 285/1/3 284/1/3
f 290/4/3 284/4/3 289/4/3
f 291/1/3 285/1/3 290/1/3
f 295/1/3 293/1/3 292/1/3
f 296/4/3 294/4/3 293/4/3
f 296/1/3 293/1/3 295/1/3
f 297/4/3 294/4/3 296/4/3
f 298/4/3 294/4/3 297/4/3
f 300/4/3 294/4/3 298/4/3
f 301/4/3 294/4/3 300/4/3
f 303/4/3 300/4/3 299/4/3
f 303/4/3 302/4/3 301/4/3
f 303/4/3 301/4/3 300/4/3
f 304/4/3 302/4/3 303/4/3
f 305/4/3 303/4/3 299/4/3
f 306/4/3 303/4/3 305/4/3
f 309/4/3 308/4/3 307/4/3
f 310/4/3 308/4/3 309/4/3
f 313/4/3 312/4/3 311/4/3
f 314/4/3 312/4/3 313/4/3
f 315/4/4 316/4/4 318/4/4
f 318/4/4 316/4/4 319/4/4
f 317/4/4 318/4/4 321/4/4
f 320/4/4 321/4/4 322/4/4
f 321/4/4 318/4/4 323/4/4
f 322/4/4 321/4/4 323/4/4
f 324/4/4 325/4/4 326/4/4
f 326/4/4 325/4/4 327/4/4
f 327/4/4 325/4/4 328/4/4
f 328/4/4 325/4/4 329/4/4
f 329/4/4 330/4/4 331/4/4
f 331/4/4 330/4/4 332/4/4
f 333/4/4 334/4/4 335/4/4
f 335/4/4 334/4/4 336/4/4
f 337/1/4 338/1/4 345/1/4
f 338/4/4 339/4/4 346/4/4
f 345/1/4 338/1/4 346/1/4
f 346/4/4 339/4/4 347/4/4
f 340/4/4 341/4/4 348/4/4
f 348/4/4 341/4/4 349/4/4
f 342/4/4 343/4/4 350/4/4
f 350/4/4 343/4/4 351/4/4
f 343/1/4 344/1/4 352/1/4
f 351/4/4 343/4/4 352/4/4
f 352/1/4 344/1/4 353/1/4
f 354/4/4 355/4/4 356/4/4
f 356/4/4 355/4/4 357/4/4
f 352/1/4 353/1/4 361/1/4
f 351/1/4 352/1/4 361/1/4
f 361/1/4 353/1/4 362/1/4
f 362/1/4 353/1/4 363/1/4
f 358/4/4 359/4/4 364/4/4
f 364/4/4 359/4/4 365/4/4
f 360/4/4 361/4/4 366/4/4
f 361/4/4 362/4/4 366/4/4
f 362/1/4 363/1/4 367/1/4
f 366/4/4 362/4/4 367/4/4
f 367/1/4 363/1/4 368/1/4
f 369/1/4 370/1/4 372/1/4
f 370/4/4 371/4/4 373/4/4
f 372/1/4 370/1/4 373/1/4
f 373/4/4 371/4/4 374/4/4
f 375/4/4 376/4/4 377/4/4
f 377/4/4 376/4/4 378/4/4
f 379/4/4 380/4/4 386/4/4
f 386/4/4 380/4/4 387/4/4
f 381/1/4 382/1/4 390/1/4
f 390/1/4 382/1/4 391/1/4
f 383/4/4 384/4/4 393/4/4
f 384/2/4 385/2/4 394/2/4
f 393/4/4 384/4/4 394/4/4
f 394/2/4 385/2/4 395/2/4
f 395/2/4 385/2/4 396/2/4
f 396/2/4 385/2/4 397/2/4
f 392/4/4 393/4/4 399/4/4
f 393/4/4 394/4/4 399/4/4
f 394/4/4 395/4/4 399/4/4
f 395/5/4 396/5/4 400/5/4
f 399/4/4 395/4/4 400/4/4
f 397/2/4 398/2/4 401/2/4
f 400/5/4 396/5/4 401/5/4
f 396/2/4 397/2/4 401/2/4
f 392/4/4 399/4/4 402/4/4
f 400/4/4 401/4/4 403/4/4
f 401/2/4 398/2/4 404/2/4
f 403/4/4 401/4/4 404/4/4
f 388/4/4 389/4/4 407/4/4
f 407/4/4 389/4/4 408/4/4
f 390/4/4 391/4/4 409/4/4
f 409/4/4 391/4/4 410/4/4
f 402/4/4 403/4/4 411/4/4
f 392/4/4 402/4/4 411/4/4
f 411/4/4 403/4/4 412/4/4
f 412/4/4 403/4/4 413/4/4
f 403/5/4 404/5/4 414/5/4
f 413/4/4 403/4/4 414/4/4
f 404/2/4 398/2/4 415/2/4
f 414/5/4 404/5/4 415/5/4
f 415/2/4 398/2/4 416/2/4
f 416/2/4 398/2/4 417/2/4
f 405/4/4 406/4/4 418/4/4
f 418/4/4 406/4/4 419/4/4
f 409/1/4 410/1/4 420/1/4
f 420/1/4 410/1/4 421/1/4
f 412/4/4 413/4/4 422/4/4
f 415/2/4 416/2/4 423/2/4
f 422/4/4 413/4/4 423/4/4
f 413/2/4 414/2/4 423/2/4
f 414/2/4 415/2/4 423/2/4
f 423/2/4 416/2/4 424/2/4
f 427/3/4 428/3/4 429/3/4
f 429/3/4 428/3/4 430/3/4
f 425/1/4 426/1/4 431/1/4
f 431/1/4 426/1/4 432/1/4
f 433/4/4 434/4/4 435/4/4
f 435/4/4 434/4/4 436/4/4
f 437/4/4 438/4/4 439/4/4
f 439/4/4 438/4/4 440/4/4
f 445/4/5 442/4/5 441/4/5
f 446/4/5 442/4/5 445/4/5
f 447/4/5 444/4/5 443/4/5
f 448/4/5 444/4/5 447/4/5
f 453/4/5 450/4/5 449/4/5
f 454/4/5 450/4/5 453/4/5
f 455/4/5 452/4/5 451/4/5
f 456/4/5 452/4/5 455/4/5
f 461/4/5 458/4/5 457/4/5
f 462/4/5 458/4/5 461/4/5
f 463/4/5 460/4/5 459/4/5
f 464/4/5 460/4/5 463/4/5
f 467/1/5 466/1/5 465/1/5
f 468/1/5 466/1/5 467/1/5
f 469/1/5 468/1/5 467/1/5
f 470/1/5 468/1/5 469/1/5
f 473/4/5 472/4/5 471/4/5
f 474/4/5 472/4/5 473/4/5
f 478/1/5 476/1/5 475/1/5
f 479/1/5 476/1/5 478/1/5
f 480/1/5 476/1/5 479/1/5
f 481/1/5 476/1/5 480/1/5
f 483/1/5 478/1/5 477/1/5
f 483/1/5 479/1/5 478/1/5
f 484/1/5 479/1/5 483/1/5
f 485/1/5 482/1/5 481/1/5
f 485/1/5 481/1/5 480/1/5
f 486/1/5 482/1/5 485/1/5
f 487/1/5 479/1/5 484/1/5
f 488/1/5 485/1/5 480/1/5
f 489/1/5 487/1/5 484/1/5
f 489/1/5 488/1/5 487/1/5
f 490/1/5 485/1/5 488/1/5
f 490/1/5 488/1/5 489/1/5
f 499/4/5 494/4/5 493/4/5
f 500/4/5 494/4/5 499/4/5
f 501/4/5 496/4/5 495/4/5
f 502/4/5 496/4/5 501/4/5
f 503/4/5 492/4/5 491/4/5
f 504/4/5 492/4/5 503/4/5
f 505/4/5 498/4/5 497/4/5
f 506/4/5 498/4/5 505/4/5
f 511/4/5 508/4/5 507/4/5
f 512/4/5 508/4/5 511/4/5
f 513/4/5 510/4/5 509/4/5
f 514/4/5 510/4/5 513/4/5
f 517/2/5 516/2/5 515/2/5
f 518/2/5 516/2/5 517/2/5
f 519/2/5 516/2/5 518/2/5
f 520/2/5 516/2/5 519/2/5
f 521/4/5 518/4/5 517/4/5
f 522/4/5 520/4/5 519/4/5
f 523/4/5 521/4/5 517/4/5
f 523/4/5 522/4/5 521/4/5
f 524/4/5 520/4/5 522/4/5
f 524/4/5 522/4/5 523/4/5
f 529/2/5 526/2/5 525/2/5
f 530/2/5 526/2/5 529/2/5
f 531/2/5 528/2/5 527/2/5
f 532/2/5 528/2/5 531/2/5
f 533/4/5 530/4/5 529/4/5
f 534/4/5 530/4/5 533/4/5
f 535/4/5 532/4/5 531/4/5
f 536/4/5 532/4/5 535/4/5
f 539/3/5 538/3/5 537/3/5
f 540/3/5 538/3/5 539/3/5
f 541/4/6 542/4/6 545/4/6
f 545/4/6 542/4/6 546/4/6
f 543/4/6 544/4/6 547/4/6
f 547/4/6 544/4/6 548/4/6
f 541/4/6 545/4/6 549/4/6
f 548/4/6 544/4/6 552/4/6
f 549/4/6 550/4/6 553/4/6
f 541/4/6 549/4/6 553/4/6
f 553/4/6 550/4/6 554/4/6
f 551/4/6 552/4/6 555/4/6
f 552/4/6 544/4/6 556/4/6
f 555/4/6 552/4/6 556/4/6
f 557/4/6 558/4/6 561/4/6
f 561/4/6 558/4/6 562/4/6
f 559/4/6 560/4/6 563/4/6
f 563/4/6 560/4/6 564/4/6
f 565/4/6 566/4/6 569/4/6
f 569/4/6 566/4/6 570/4/6
f 567/4/6 568/4/6 571/4/6
f 571/4/6 568/4/6 572/4/6
f 573/1/6 574/1/6 576/1/6
f 576/1/6 574/1/6 577/1/6
f 575/1/6 576/1/6 579/1/6
f 579/1/6 576/1/6 580/1/6
f 577/1/6 578/1/6 581/1/6
f 581/1/6 578/1/6 582/1/6
f 583/1/6 584/1/6 587/1/6
f 585/1/6 586/1/6 587/1/6
f 584/1/6 585/1/6 587/1/6
f 587/1/6 586/1/6 588/1/6
f 589/1/6 590/1/6 596/1/6
f 590/4/6 591/4/6 597/4/6
f 597/4/6 591/4/6 598/4/6
f 591/1/6 592/1/6 599/1/6
f 593/4/6 594/4/6 603/4/6
f 595/4/6 596/4/6 604/4/6
f 604/4/6 596/4/6 605/4/6
f 599/4/6 600/4/6 606/4/6
f 606/4/6 600/4/6 607/4/6
f 601/4/6 602/4/6 608/4/6
f 593/4/6 603/4/6 609/4/6
f 603/4/6 604/4/6 609/4/6
f 609/4/6 604/4/6 610/4/6
f 605/4/6 596/4/6 611/4/6
f 596/1/6 590/1/6 612/1/6
f 611/4/6 596/4/6 612/4/6
f 590/4/6 597/4/6 613/4/6
f 598/4/6 591/4/6 614/4/6
f 591/1/6 599/1/6 615/1/6
f 599/4/6 606/4/6 615/4/6
f 615/4/6 606/4/6 616/4/6
f 607/4/6 608/4/6 617/4/6
f 608/4/6 602/4/6 618/4/6
f 617/4/6 608/4/6 618/4/6
f 612/1/6 590/1/6 619/1/6
f 590/4/6 613/4/6 620/4/6
f 619/1/6 590/1/6 620/1/6
f 613/4/6 614/4/6 620/4/6
f 591/1/6 615/1/6 621/1/6
f 620/4/6 614/4/6 621/4/6
f 614/4/6 591/4/6 621/4/6
f 621/1/6 615/1/6 622/1/6
f 623/4/6 624/4/6 627/4/6
f 627/4/6 624/4/6 628/4/6
f 625/4/6 626/4/6 629/4/6
f 629/4/6 626/4/6 630/4/6
f 631/3/6 632/3/6 633/3/6
f 633/3/6 632/3/6 634/3/6
f 635/2/6 636/2/6 639/2/6
f 639/2/6 636/2/6 640/2/6
f 637/2/6 638/2/6 641/2/6
f 641/2/6 638/2/6 642/2/6
f 643/2/6 644/2/6 645/2/6
f 645/2/6 644/2/6 646/2/6
