# MagicaVoxel @ Ephtracy

# group
o 

# material
mtllib sword1.mtl
usemtl palette

# normals
vn -1 0 0
vn 1 0 0
vn 0 0 1
vn 0 0 -1
vn 0 -1 0
vn 0 1 0

# texcoords
vt 0.341797 0.5
vt 0.677734 0.5
vt 0.931641 0.5
vt 0.966797 0.5

# verts
v -0.3 0.1 0.1
v -0.3 0.1 -0.1
v -0.3 0.2 0.2
v -0.3 0.2 0.1
v -0.3 0.2 -0.1
v -0.3 0.2 -0.2
v -0.3 0.3 0.2
v -0.3 0.3 0.1
v -0.3 0.3 -0.1
v -0.3 0.3 -0.2
v -0.3 0.4 0.1
v -0.3 0.4 -0.1
v -0.3 0.8 0.8
v -0.3 0.8 -0.8
v -0.3 1 0.5
v -0.3 1 -0.5
v -0.3 1.1 0.6
v -0.3 1.1 0.5
v -0.3 1.1 -0.5
v -0.3 1.1 -0.6
v -0.3 1.2 0.8
v -0.3 1.2 0.6
v -0.3 1.2 -0.6
v -0.3 1.2 -0.8
v -0.2 0 0.1
v -0.2 0 -0.1
v -0.2 0.1 0.2
v -0.2 0.1 0.1
v -0.2 0.1 -0.1
v -0.2 0.1 -0.2
v -0.2 0.2 0.3
v -0.2 0.2 0.2
v -0.2 0.2 0.1
v -0.2 0.2 -0.1
v -0.2 0.2 -0.2
v -0.2 0.2 -0.3
v -0.2 0.3 0.3
v -0.2 0.3 0.2
v -0.2 0.3 0.1
v -0.2 0.3 -0.1
v -0.2 0.3 -0.2
v -0.2 0.3 -0.3
v -0.2 0.4 0.2
v -0.2 0.4 0.1
v -0.2 0.4 -0.1
v -0.2 0.4 -0.2
v -0.2 0.5 0.1
v -0.2 0.5 -0.1
v -0.2 1 0.3
v -0.2 1 -0.3
v -0.2 3.1 0.3
v -0.2 3.1 0.2
v -0.2 3.1 -0.2
v -0.2 3.1 -0.3
v -0.2 3.2 0.2
v -0.2 3.2 0.1
v -0.2 3.2 -0.1
v -0.2 3.2 -0.2
v -0.2 3.3 0.1
v -0.2 3.3 -0.1
v -0.1 0 0.2
v -0.1 0 0.1
v -0.1 0 -0.1
v -0.1 0 -0.2
v -0.1 0.1 0.3
v -0.1 0.1 0.2
v -0.1 0.1 0.1
v -0.1 0.1 -0.1
v -0.1 0.1 -0.2
v -0.1 0.1 -0.3
v -0.1 0.2 0.3
v -0.1 0.2 0.2
v -0.1 0.2 -0.2
v -0.1 0.2 -0.3
v -0.1 0.3 0.3
v -0.1 0.3 0.2
v -0.1 0.3 -0.2
v -0.1 0.3 -0.3
v -0.1 0.4 0.3
v -0.1 0.4 0.2
v -0.1 0.4 0.1
v -0.1 0.4 -0.1
v -0.1 0.4 -0.2
v -0.1 0.4 -0.3
v -0.1 0.5 0.2
v -0.1 0.5 0.1
v -0.1 0.5 -0.1
v -0.1 0.5 -0.2
v -0.1 0.8 0.1
v -0.1 0.8 -0.1
v -0.1 3.1 0.3
v -0.1 3.1 0.2
v -0.1 3.1 -0.2
v -0.1 3.1 -0.3
v -0.1 3.2 0.3
v -0.1 3.2 0.2
v -0.1 3.2 0.1
v -0.1 3.2 -0.1
v -0.1 3.2 -0.2
v -0.1 3.2 -0.3
v -0.1 3.3 0.2
v -0.1 3.3 0.1
v -0.1 3.3 -0.1
v -0.1 3.3 -0.2
v -0.1 3.4 0.1
v -0.1 3.4 -0.1
v 0.1 0 0.2
v 0.1 0 0.1
v 0.1 0 -0.1
v 0.1 0 -0.2
v 0.1 0.1 0.3
v 0.1 0.1 0.2
v 0.1 0.1 0.1
v 0.1 0.1 -0.1
v 0.1 0.1 -0.2
v 0.1 0.1 -0.3
v 0.1 0.2 0.3
v 0.1 0.2 0.2
v 0.1 0.2 -0.2
v 0.1 0.2 -0.3
v 0.1 0.3 0.3
v 0.1 0.3 0.2
v 0.1 0.3 -0.2
v 0.1 0.3 -0.3
v 0.1 0.4 0.3
v 0.1 0.4 0.2
v 0.1 0.4 0.1
v 0.1 0.4 -0.1
v 0.1 0.4 -0.2
v 0.1 0.4 -0.3
v 0.1 0.5 0.2
v 0.1 0.5 0.1
v 0.1 0.5 -0.1
v 0.1 0.5 -0.2
v 0.1 0.8 0.1
v 0.1 0.8 -0.1
v 0.1 1 0.1
v 0.1 1 -0.1
v 0.1 3 0.1
v 0.1 3 -0.1
v 0.1 3.1 0.3
v 0.1 3.1 0.2
v 0.1 3.1 -0.2
v 0.1 3.1 -0.3
v 0.1 3.2 0.3
v 0.1 3.2 0.2
v 0.1 3.2 0.1
v 0.1 3.2 -0.1
v 0.1 3.2 -0.2
v 0.1 3.2 -0.3
v 0.1 3.3 0.2
v 0.1 3.3 0.1
v 0.1 3.3 -0.1
v 0.1 3.3 -0.2
v 0.1 3.4 0.1
v 0.1 3.4 -0.1
v 0.2 0 0.1
v 0.2 0 -0.1
v 0.2 0.1 0.2
v 0.2 0.1 0.1
v 0.2 0.1 -0.1
v 0.2 0.1 -0.2
v 0.2 0.2 0.3
v 0.2 0.2 0.2
v 0.2 0.2 0.1
v 0.2 0.2 -0.1
v 0.2 0.2 -0.2
v 0.2 0.2 -0.3
v 0.2 0.3 0.3
v 0.2 0.3 0.2
v 0.2 0.3 0.1
v 0.2 0.3 -0.1
v 0.2 0.3 -0.2
v 0.2 0.3 -0.3
v 0.2 0.4 0.2
v 0.2 0.4 0.1
v 0.2 0.4 -0.1
v 0.2 0.4 -0.2
v 0.2 0.5 0.1
v 0.2 0.5 -0.1
v 0.2 1 0.3
v 0.2 1 0.1
v 0.2 1 -0.1
v 0.2 1 -0.3
v 0.2 3 0.1
v 0.2 3 -0.1
v 0.2 3.1 0.3
v 0.2 3.1 0.2
v 0.2 3.1 -0.2
v 0.2 3.1 -0.3
v 0.2 3.2 0.2
v 0.2 3.2 0.1
v 0.2 3.2 -0.1
v 0.2 3.2 -0.2
v 0.2 3.3 0.1
v 0.2 3.3 -0.1
v 0.3 0.1 0.1
v 0.3 0.1 -0.1
v 0.3 0.2 0.2
v 0.3 0.2 0.1
v 0.3 0.2 -0.1
v 0.3 0.2 -0.2
v 0.3 0.3 0.2
v 0.3 0.3 0.1
v 0.3 0.3 -0.1
v 0.3 0.3 -0.2
v 0.3 0.4 0.1
v 0.3 0.4 -0.1
v 0.3 0.8 0.8
v 0.3 0.8 -0.8
v 0.3 1 0.5
v 0.3 1 -0.5
v 0.3 1.1 0.6
v 0.3 1.1 0.5
v 0.3 1.1 -0.5
v 0.3 1.1 -0.6
v 0.3 1.2 0.8
v 0.3 1.2 0.6
v 0.3 1.2 -0.6
v 0.3 1.2 -0.8
v -0.3 0.8 0.8
v -0.3 1.2 0.8
v 0.3 0.8 0.8
v 0.3 1.2 0.8
v -0.2 0.2 0.3
v -0.2 0.3 0.3
v -0.2 1 0.3
v -0.2 3.1 0.3
v -0.1 0.1 0.3
v -0.1 0.2 0.3
v -0.1 0.3 0.3
v -0.1 0.4 0.3
v -0.1 3.1 0.3
v -0.1 3.2 0.3
v 0.1 0.1 0.3
v 0.1 0.2 0.3
v 0.1 0.3 0.3
v 0.1 0.4 0.3
v 0.1 3.1 0.3
v 0.1 3.2 0.3
v 0.2 0.2 0.3
v 0.2 0.3 0.3
v 0.2 1 0.3
v 0.2 3.1 0.3
v -0.3 0.2 0.2
v -0.3 0.3 0.2
v -0.2 0.1 0.2
v -0.2 0.2 0.2
v -0.2 0.3 0.2
v -0.2 0.4 0.2
v -0.2 3.1 0.2
v -0.2 3.2 0.2
v -0.1 0 0.2
v -0.1 0.1 0.2
v -0.1 0.2 0.2
v -0.1 0.3 0.2
v -0.1 0.4 0.2
v -0.1 0.5 0.2
v -0.1 3.1 0.2
v -0.1 3.2 0.2
v -0.1 3.3 0.2
v 0.1 0 0.2
v 0.1 0.1 0.2
v 0.1 0.2 0.2
v 0.1 0.3 0.2
v 0.1 0.4 0.2
v 0.1 0.5 0.2
v 0.1 3.1 0.2
v 0.1 3.2 0.2
v 0.1 3.3 0.2
v 0.2 0.1 0.2
v 0.2 0.2 0.2
v 0.2 0.3 0.2
v 0.2 0.4 0.2
v 0.2 3.1 0.2
v 0.2 3.2 0.2
v 0.3 0.2 0.2
v 0.3 0.3 0.2
v -0.3 0.1 0.1
v -0.3 0.2 0.1
v -0.3 0.3 0.1
v -0.3 0.4 0.1
v -0.2 0 0.1
v -0.2 0.1 0.1
v -0.2 0.2 0.1
v -0.2 0.3 0.1
v -0.2 0.4 0.1
v -0.2 0.5 0.1
v -0.2 3.2 0.1
v -0.2 3.3 0.1
v -0.1 0 0.1
v -0.1 0.1 0.1
v -0.1 0.4 0.1
v -0.1 0.5 0.1
v -0.1 0.8 0.1
v -0.1 3.2 0.1
v -0.1 3.3 0.1
v -0.1 3.4 0.1
v 0.1 0 0.1
v 0.1 0.1 0.1
v 0.1 0.4 0.1
v 0.1 0.5 0.1
v 0.1 0.8 0.1
v 0.1 3.2 0.1
v 0.1 3.3 0.1
v 0.1 3.4 0.1
v 0.2 0 0.1
v 0.2 0.1 0.1
v 0.2 0.2 0.1
v 0.2 0.3 0.1
v 0.2 0.4 0.1
v 0.2 0.5 0.1
v 0.2 3.2 0.1
v 0.2 3.3 0.1
v 0.3 0.1 0.1
v 0.3 0.2 0.1
v 0.3 0.3 0.1
v 0.3 0.4 0.1
v 0.1 1 -0.1
v 0.1 3 -0.1
v 0.2 1 -0.1
v 0.2 3 -0.1
v -0.3 1 -0.5
v -0.3 1.1 -0.5
v 0.3 1 -0.5
v 0.3 1.1 -0.5
v -0.3 1.1 -0.6
v -0.3 1.2 -0.6
v 0.3 1.1 -0.6
v 0.3 1.2 -0.6
v -0.3 1.1 0.6
v -0.3 1.2 0.6
v 0.3 1.1 0.6
v 0.3 1.2 0.6
v -0.3 1 0.5
v -0.3 1.1 0.5
v 0.3 1 0.5
v 0.3 1.1 0.5
v 0.1 1 0.1
v 0.1 3 0.1
v 0.2 1 0.1
v 0.2 3 0.1
v -0.3 0.1 -0.1
v -0.3 0.2 -0.1
v -0.3 0.3 -0.1
v -0.3 0.4 -0.1
v -0.2 0 -0.1
v -0.2 0.1 -0.1
v -0.2 0.2 -0.1
v -0.2 0.3 -0.1
v -0.2 0.4 -0.1
v -0.2 0.5 -0.1
v -0.2 3.2 -0.1
v -0.2 3.3 -0.1
v -0.1 0 -0.1
v -0.1 0.1 -0.1
v -0.1 0.4 -0.1
v -0.1 0.5 -0.1
v -0.1 0.8 -0.1
v -0.1 3.2 -0.1
v -0.1 3.3 -0.1
v -0.1 3.4 -0.1
v 0.1 0 -0.1
v 0.1 0.1 -0.1
v 0.1 0.4 -0.1
v 0.1 0.5 -0.1
v 0.1 0.8 -0.1
v 0.1 3.2 -0.1
v 0.1 3.3 -0.1
v 0.1 3.4 -0.1
v 0.2 0 -0.1
v 0.2 0.1 -0.1
v 0.2 0.2 -0.1
v 0.2 0.3 -0.1
v 0.2 0.4 -0.1
v 0.2 0.5 -0.1
v 0.2 3.2 -0.1
v 0.2 3.3 -0.1
v 0.3 0.1 -0.1
v 0.3 0.2 -0.1
v 0.3 0.3 -0.1
v 0.3 0.4 -0.1
v -0.3 0.2 -0.2
v -0.3 0.3 -0.2
v -0.2 0.1 -0.2
v -0.2 0.2 -0.2
v -0.2 0.3 -0.2
v -0.2 0.4 -0.2
v -0.2 3.1 -0.2
v -0.2 3.2 -0.2
v -0.1 0 -0.2
v -0.1 0.1 -0.2
v -0.1 0.2 -0.2
v -0.1 0.3 -0.2
v -0.1 0.4 -0.2
v -0.1 0.5 -0.2
v -0.1 3.1 -0.2
v -0.1 3.2 -0.2
v -0.1 3.3 -0.2
v 0.1 0 -0.2
v 0.1 0.1 -0.2
v 0.1 0.2 -0.2
v 0.1 0.3 -0.2
v 0.1 0.4 -0.2
v 0.1 0.5 -0.2
v 0.1 3.1 -0.2
v 0.1 3.2 -0.2
v 0.1 3.3 -0.2
v 0.2 0.1 -0.2
v 0.2 0.2 -0.2
v 0.2 0.3 -0.2
v 0.2 0.4 -0.2
v 0.2 3.1 -0.2
v 0.2 3.2 -0.2
v 0.3 0.2 -0.2
v 0.3 0.3 -0.2
v -0.2 0.2 -0.3
v -0.2 0.3 -0.3
v -0.2 1 -0.3
v -0.2 3.1 -0.3
v -0.1 0.1 -0.3
v -0.1 0.2 -0.3
v -0.1 0.3 -0.3
v -0.1 0.4 -0.3
v -0.1 3.1 -0.3
v -0.1 3.2 -0.3
v 0.1 0.1 -0.3
v 0.1 0.2 -0.3
v 0.1 0.3 -0.3
v 0.1 0.4 -0.3
v 0.1 3.1 -0.3
v 0.1 3.2 -0.3
v 0.2 0.2 -0.3
v 0.2 0.3 -0.3
v 0.2 1 -0.3
v 0.2 3.1 -0.3
v -0.3 0.8 -0.8
v -0.3 1.2 -0.8
v 0.3 0.8 -0.8
v 0.3 1.2 -0.8
v -0.1 0 0.2
v 0.1 0 0.2
v -0.2 0 0.1
v -0.1 0 0.1
v 0.1 0 0.1
v 0.2 0 0.1
v -0.2 0 -0.1
v -0.1 0 -0.1
v 0.1 0 -0.1
v 0.2 0 -0.1
v -0.1 0 -0.2
v 0.1 0 -0.2
v -0.1 0.1 0.3
v 0.1 0.1 0.3
v -0.2 0.1 0.2
v -0.1 0.1 0.2
v 0.1 0.1 0.2
v 0.2 0.1 0.2
v -0.3 0.1 0.1
v -0.2 0.1 0.1
v -0.1 0.1 0.1
v 0.1 0.1 0.1
v 0.2 0.1 0.1
v 0.3 0.1 0.1
v -0.3 0.1 -0.1
v -0.2 0.1 -0.1
v -0.1 0.1 -0.1
v 0.1 0.1 -0.1
v 0.2 0.1 -0.1
v 0.3 0.1 -0.1
v -0.2 0.1 -0.2
v -0.1 0.1 -0.2
v 0.1 0.1 -0.2
v 0.2 0.1 -0.2
v -0.1 0.1 -0.3
v 0.1 0.1 -0.3
v -0.2 0.2 0.3
v -0.1 0.2 0.3
v 0.1 0.2 0.3
v 0.2 0.2 0.3
v -0.3 0.2 0.2
v -0.2 0.2 0.2
v -0.1 0.2 0.2
v 0.1 0.2 0.2
v 0.2 0.2 0.2
v 0.3 0.2 0.2
v -0.3 0.2 0.1
v -0.2 0.2 0.1
v 0.2 0.2 0.1
v 0.3 0.2 0.1
v -0.3 0.2 -0.1
v -0.2 0.2 -0.1
v 0.2 0.2 -0.1
v 0.3 0.2 -0.1
v -0.3 0.2 -0.2
v -0.2 0.2 -0.2
v -0.1 0.2 -0.2
v 0.1 0.2 -0.2
v 0.2 0.2 -0.2
v 0.3 0.2 -0.2
v -0.2 0.2 -0.3
v -0.1 0.2 -0.3
v 0.1 0.2 -0.3
v 0.2 0.2 -0.3
v -0.3 0.8 0.8
v 0.3 0.8 0.8
v -0.1 0.8 0.1
v 0.1 0.8 0.1
v -0.1 0.8 -0.1
v 0.1 0.8 -0.1
v -0.3 0.8 -0.8
v 0.3 0.8 -0.8
v 0.1 3 0.1
v 0.2 3 0.1
v 0.1 3 -0.1
v 0.2 3 -0.1
v -0.2 0.3 0.3
v -0.1 0.3 0.3
v 0.1 0.3 0.3
v 0.2 0.3 0.3
v -0.3 0.3 0.2
v -0.2 0.3 0.2
v -0.1 0.3 0.2
v 0.1 0.3 0.2
v 0.2 0.3 0.2
v 0.3 0.3 0.2
v -0.3 0.3 0.1
v -0.2 0.3 0.1
v 0.2 0.3 0.1
v 0.3 0.3 0.1
v -0.3 0.3 -0.1
v -0.2 0.3 -0.1
v 0.2 0.3 -0.1
v 0.3 0.3 -0.1
v -0.3 0.3 -0.2
v -0.2 0.3 -0.2
v -0.1 0.3 -0.2
v 0.1 0.3 -0.2
v 0.2 0.3 -0.2
v 0.3 0.3 -0.2
v -0.2 0.3 -0.3
v -0.1 0.3 -0.3
v 0.1 0.3 -0.3
v 0.2 0.3 -0.3
v -0.1 0.4 0.3
v 0.1 0.4 0.3
v -0.2 0.4 0.2
v -0.1 0.4 0.2
v 0.1 0.4 0.2
v 0.2 0.4 0.2
v -0.3 0.4 0.1
v -0.2 0.4 0.1
v -0.1 0.4 0.1
v 0.1 0.4 0.1
v 0.2 0.4 0.1
v 0.3 0.4 0.1
v -0.3 0.4 -0.1
v -0.2 0.4 -0.1
v -0.1 0.4 -0.1
v 0.1 0.4 -0.1
v 0.2 0.4 -0.1
v 0.3 0.4 -0.1
v -0.2 0.4 -0.2
v -0.1 0.4 -0.2
v 0.1 0.4 -0.2
v 0.2 0.4 -0.2
v -0.1 0.4 -0.3
v 0.1 0.4 -0.3
v -0.1 0.5 0.2
v 0.1 0.5 0.2
v -0.2 0.5 0.1
v -0.1 0.5 0.1
v 0.1 0.5 0.1
v 0.2 0.5 0.1
v -0.2 0.5 -0.1
v -0.1 0.5 -0.1
v 0.1 0.5 -0.1
v 0.2 0.5 -0.1
v -0.1 0.5 -0.2
v 0.1 0.5 -0.2
v -0.3 1 0.5
v 0.3 1 0.5
v -0.2 1 0.3
v 0.2 1 0.3
v 0.1 1 0.1
v 0.2 1 0.1
v 0.1 1 -0.1
v 0.2 1 -0.1
v -0.2 1 -0.3
v 0.2 1 -0.3
v -0.3 1 -0.5
v 0.3 1 -0.5
v -0.3 1.1 0.6
v 0.3 1.1 0.6
v -0.3 1.1 0.5
v 0.3 1.1 0.5
v -0.3 1.1 -0.5
v 0.3 1.1 -0.5
v -0.3 1.1 -0.6
v 0.3 1.1 -0.6
v -0.3 1.2 0.8
v 0.3 1.2 0.8
v -0.3 1.2 0.6
v 0.3 1.2 0.6
v -0.3 1.2 -0.6
v 0.3 1.2 -0.6
v -0.3 1.2 -0.8
v 0.3 1.2 -0.8
v -0.2 3.1 0.3
v -0.1 3.1 0.3
v 0.1 3.1 0.3
v 0.2 3.1 0.3
v -0.2 3.1 0.2
v -0.1 3.1 0.2
v 0.1 3.1 0.2
v 0.2 3.1 0.2
v -0.2 3.1 -0.2
v -0.1 3.1 -0.2
v 0.1 3.1 -0.2
v 0.2 3.1 -0.2
v -0.2 3.1 -0.3
v -0.1 3.1 -0.3
v 0.1 3.1 -0.3
v 0.2 3.1 -0.3
v -0.1 3.2 0.3
v 0.1 3.2 0.3
v -0.2 3.2 0.2
v -0.1 3.2 0.2
v 0.1 3.2 0.2
v 0.2 3.2 0.2
v -0.2 3.2 0.1
v -0.1 3.2 0.1
v 0.1 3.2 0.1
v 0.2 3.2 0.1
v -0.2 3.2 -0.1
v -0.1 3.2 -0.1
v 0.1 3.2 -0.1
v 0.2 3.2 -0.1
v -0.2 3.2 -0.2
v -0.1 3.2 -0.2
v 0.1 3.2 -0.2
v 0.2 3.2 -0.2
v -0.1 3.2 -0.3
v 0.1 3.2 -0.3
v -0.1 3.3 0.2
v 0.1 3.3 0.2
v -0.2 3.3 0.1
v -0.1 3.3 0.1
v 0.1 3.3 0.1
v 0.2 3.3 0.1
v -0.2 3.3 -0.1
v -0.1 3.3 -0.1
v 0.1 3.3 -0.1
v 0.2 3.3 -0.1
v -0.1 3.3 -0.2
v 0.1 3.3 -0.2
v -0.1 3.4 0.1
v 0.1 3.4 0.1
v -0.1 3.4 -0.1
v 0.1 3.4 -0.1

# faces
f 4/3/1 2/3/1 1/3/1
f 5/3/1 2/3/1 4/3/1
f 7/3/1 4/3/1 3/3/1
f 7/3/1 6/3/1 5/3/1
f 7/3/1 5/3/1 4/3/1
f 8/3/1 6/3/1 7/3/1
f 9/3/1 6/3/1 8/3/1
f 10/3/1 6/3/1 9/3/1
f 11/3/1 9/3/1 8/3/1
f 12/3/1 9/3/1 11/3/1
f 15/3/1 14/3/1 13/3/1
f 16/3/1 14/3/1 15/3/1
f 17/3/1 15/3/1 13/3/1
f 18/3/1 15/3/1 17/3/1
f 19/3/1 14/3/1 16/3/1
f 20/3/1 14/3/1 19/3/1
f 21/3/1 17/3/1 13/3/1
f 22/3/1 17/3/1 21/3/1
f 23/3/1 14/3/1 20/3/1
f 24/3/1 14/3/1 23/3/1
f 28/3/1 26/3/1 25/3/1
f 29/3/1 26/3/1 28/3/1
f 32/3/1 28/3/1 27/3/1
f 33/3/1 28/3/1 32/3/1
f 34/3/1 30/3/1 29/3/1
f 35/3/1 30/3/1 34/3/1
f 37/3/1 32/3/1 31/3/1
f 38/3/1 32/3/1 37/3/1
f 41/3/1 36/3/1 35/3/1
f 42/3/1 36/3/1 41/3/1
f 43/3/1 39/3/1 38/3/1
f 44/3/1 39/3/1 43/3/1
f 45/3/1 41/3/1 40/3/1
f 46/3/1 41/3/1 45/3/1
f 47/3/1 45/3/1 44/3/1
f 48/3/1 45/3/1 47/3/1
f 51/2/1 50/2/1 49/2/1
f 52/2/1 50/2/1 51/2/1
f 53/2/1 50/2/1 52/2/1
f 54/2/1 50/2/1 53/2/1
f 55/2/1 53/2/1 52/2/1
f 56/2/1 53/2/1 55/2/1
f 57/2/1 53/2/1 56/2/1
f 58/2/1 53/2/1 57/2/1
f 59/2/1 57/2/1 56/2/1
f 60/2/1 57/2/1 59/2/1
f 66/3/1 62/3/1 61/3/1
f 67/3/1 62/3/1 66/3/1
f 68/3/1 64/3/1 63/3/1
f 69/3/1 64/3/1 68/3/1
f 71/3/1 66/3/1 65/3/1
f 72/3/1 66/3/1 71/3/1
f 73/3/1 70/3/1 69/3/1
f 74/3/1 70/3/1 73/3/1
f 79/3/1 76/3/1 75/3/1
f 80/3/1 76/3/1 79/3/1
f 83/3/1 78/3/1 77/3/1
f 84/3/1 78/3/1 83/3/1
f 85/3/1 81/3/1 80/3/1
f 86/3/1 81/3/1 85/3/1
f 87/3/1 83/3/1 82/3/1
f 88/3/1 83/3/1 87/3/1
f 89/1/1 87/1/1 86/1/1
f 90/1/1 87/1/1 89/1/1
f 95/2/1 92/2/1 91/2/1
f 96/2/1 92/2/1 95/2/1
f 99/2/1 94/2/1 93/2/1
f 100/2/1 94/2/1 99/2/1
f 101/2/1 97/2/1 96/2/1
f 102/2/1 97/2/1 101/2/1
f 103/2/1 99/2/1 98/2/1
f 104/2/1 99/2/1 103/2/1
f 105/2/1 103/2/1 102/2/1
f 106/2/1 103/2/1 105/2/1
f 107/3/2 108/3/2 112/3/2
f 112/3/2 108/3/2 113/3/2
f 109/3/2 110/3/2 114/3/2
f 114/3/2 110/3/2 115/3/2
f 111/3/2 112/3/2 117/3/2
f 117/3/2 112/3/2 118/3/2
f 115/3/2 116/3/2 119/3/2
f 119/3/2 116/3/2 120/3/2
f 121/3/2 122/3/2 125/3/2
f 125/3/2 122/3/2 126/3/2
f 123/3/2 124/3/2 129/3/2
f 129/3/2 124/3/2 130/3/2
f 126/3/2 127/3/2 131/3/2
f 131/3/2 127/3/2 132/3/2
f 128/3/2 129/3/2 133/3/2
f 133/3/2 129/3/2 134/3/2
f 132/1/2 133/1/2 135/1/2
f 135/1/2 133/1/2 136/1/2
f 137/2/2 138/2/2 139/2/2
f 139/2/2 138/2/2 140/2/2
f 141/2/2 142/2/2 145/2/2
f 145/2/2 142/2/2 146/2/2
f 143/2/2 144/2/2 149/2/2
f 149/2/2 144/2/2 150/2/2
f 146/2/2 147/2/2 151/2/2
f 151/2/2 147/2/2 152/2/2
f 148/2/2 149/2/2 153/2/2
f 153/2/2 149/2/2 154/2/2
f 152/2/2 153/2/2 155/2/2
f 155/2/2 153/2/2 156/2/2
f 157/3/2 158/3/2 160/3/2
f 160/3/2 158/3/2 161/3/2
f 159/3/2 160/3/2 164/3/2
f 164/3/2 160/3/2 165/3/2
f 161/3/2 162/3/2 166/3/2
f 166/3/2 162/3/2 167/3/2
f 163/3/2 164/3/2 169/3/2
f 169/3/2 164/3/2 170/3/2
f 167/3/2 168/3/2 173/3/2
f 173/3/2 168/3/2 174/3/2
f 170/3/2 171/3/2 175/3/2
f 175/3/2 171/3/2 176/3/2
f 172/3/2 173/3/2 177/3/2
f 177/3/2 173/3/2 178/3/2
f 176/3/2 177/3/2 179/3/2
f 179/3/2 177/3/2 180/3/2
f 181/2/2 182/2/2 185/2/2
f 183/2/2 184/2/2 186/2/2
f 181/2/2 185/2/2 187/2/2
f 185/2/2 186/2/2 187/2/2
f 187/2/2 186/2/2 188/2/2
f 186/2/2 184/2/2 189/2/2
f 188/2/2 186/2/2 189/2/2
f 189/2/2 184/2/2 190/2/2
f 188/2/2 189/2/2 191/2/2
f 191/2/2 189/2/2 192/2/2
f 192/2/2 189/2/2 193/2/2
f 193/2/2 189/2/2 194/2/2
f 192/2/2 193/2/2 195/2/2
f 195/2/2 193/2/2 196/2/2
f 197/3/2 198/3/2 200/3/2
f 200/3/2 198/3/2 201/3/2
f 199/3/2 200/3/2 203/3/2
f 201/3/2 202/3/2 203/3/2
f 200/3/2 201/3/2 203/3/2
f 203/3/2 202/3/2 204/3/2
f 204/3/2 202/3/2 205/3/2
f 205/3/2 202/3/2 206/3/2
f 204/3/2 205/3/2 207/3/2
f 207/3/2 205/3/2 208/3/2
f 209/3/2 210/3/2 211/3/2
f 211/3/2 210/3/2 212/3/2
f 209/3/2 211/3/2 213/3/2
f 213/3/2 211/3/2 214/3/2
f 212/3/2 210/3/2 215/3/2
f 215/3/2 210/3/2 216/3/2
f 209/3/2 213/3/2 217/3/2
f 217/3/2 213/3/2 218/3/2
f 216/3/2 210/3/2 219/3/2
f 219/3/2 210/3/2 220/3/2
f 223/3/3 222/3/3 221/3/3
f 224/3/3 222/3/3 223/3/3
f 230/3/3 226/3/3 225/3/3
f 231/3/3 226/3/3 230/3/3
f 233/2/3 228/2/3 227/2/3
f 235/3/3 232/3/3 231/3/3
f 235/3/3 230/3/3 229/3/3
f 235/3/3 231/3/3 230/3/3
f 236/3/3 232/3/3 235/3/3
f 237/3/3 232/3/3 236/3/3
f 238/3/3 232/3/3 237/3/3
f 239/2/3 234/2/3 233/2/3
f 239/2/3 233/2/3 227/2/3
f 240/2/3 234/2/3 239/2/3
f 241/3/3 237/3/3 236/3/3
f 242/3/3 237/3/3 241/3/3
f 243/2/3 239/2/3 227/2/3
f 244/2/3 239/2/3 243/2/3
f 248/3/3 246/3/3 245/3/3
f 249/3/3 246/3/3 248/3/3
f 254/3/3 248/3/3 247/3/3
f 255/3/3 248/3/3 254/3/3
f 256/3/3 250/3/3 249/3/3
f 257/3/3 250/3/3 256/3/3
f 259/2/3 252/2/3 251/2/3
f 260/2/3 252/2/3 259/2/3
f 262/3/3 254/3/3 253/3/3
f 263/3/3 254/3/3 262/3/3
f 266/3/3 258/3/3 257/3/3
f 267/3/3 258/3/3 266/3/3
f 269/2/3 261/2/3 260/2/3
f 270/2/3 261/2/3 269/2/3
f 271/3/3 264/3/3 263/3/3
f 272/3/3 264/3/3 271/3/3
f 273/3/3 266/3/3 265/3/3
f 274/3/3 266/3/3 273/3/3
f 275/2/3 269/2/3 268/2/3
f 276/2/3 269/2/3 275/2/3
f 277/3/3 273/3/3 272/3/3
f 278/3/3 273/3/3 277/3/3
f 284/3/3 280/3/3 279/3/3
f 285/3/3 280/3/3 284/3/3
f 286/3/3 282/3/3 281/3/3
f 287/3/3 282/3/3 286/3/3
f 291/3/3 284/3/3 283/3/3
f 292/3/3 284/3/3 291/3/3
f 293/3/3 288/3/3 287/3/3
f 294/3/3 288/3/3 293/3/3
f 296/2/3 290/2/3 289/2/3
f 297/2/3 290/2/3 296/2/3
f 302/1/3 295/1/3 294/1/3
f 303/1/3 295/1/3 302/1/3
f 305/2/3 298/2/3 297/2/3
f 306/2/3 298/2/3 305/2/3
f 307/3/3 300/3/3 299/3/3
f 308/3/3 300/3/3 307/3/3
f 311/3/3 302/3/3 301/3/3
f 312/3/3 302/3/3 311/3/3
f 313/2/3 305/2/3 304/2/3
f 314/2/3 305/2/3 313/2/3
f 315/3/3 309/3/3 308/3/3
f 316/3/3 309/3/3 315/3/3
f 317/3/3 311/3/3 310/3/3
f 318/3/3 311/3/3 317/3/3
f 321/2/3 320/2/3 319/2/3
f 322/2/3 320/2/3 321/2/3
f 325/3/3 324/3/3 323/3/3
f 326/3/3 324/3/3 325/3/3
f 329/3/3 328/3/3 327/3/3
f 330/3/3 328/3/3 329/3/3
f 331/3/4 332/3/4 333/3/4
f 333/3/4 332/3/4 334/3/4
f 335/3/4 336/3/4 337/3/4
f 337/3/4 336/3/4 338/3/4
f 339/2/4 340/2/4 341/2/4
f 341/2/4 340/2/4 342/2/4
f 343/3/4 344/3/4 348/3/4
f 348/3/4 344/3/4 349/3/4
f 345/3/4 346/3/4 350/3/4
f 350/3/4 346/3/4 351/3/4
f 347/3/4 348/3/4 355/3/4
f 355/3/4 348/3/4 356/3/4
f 351/3/4 352/3/4 357/3/4
f 357/3/4 352/3/4 358/3/4
f 353/2/4 354/2/4 360/2/4
f 360/2/4 354/2/4 361/2/4
f 358/1/4 359/1/4 366/1/4
f 366/1/4 359/1/4 367/1/4
f 361/2/4 362/2/4 369/2/4
f 369/2/4 362/2/4 370/2/4
f 363/3/4 364/3/4 371/3/4
f 371/3/4 364/3/4 372/3/4
f 365/3/4 366/3/4 375/3/4
f 375/3/4 366/3/4 376/3/4
f 368/2/4 369/2/4 377/2/4
f 377/2/4 369/2/4 378/2/4
f 372/3/4 373/3/4 379/3/4
f 379/3/4 373/3/4 380/3/4
f 374/3/4 375/3/4 381/3/4
f 381/3/4 375/3/4 382/3/4
f 383/3/4 384/3/4 386/3/4
f 386/3/4 384/3/4 387/3/4
f 385/3/4 386/3/4 392/3/4
f 392/3/4 386/3/4 393/3/4
f 387/3/4 388/3/4 394/3/4
f 394/3/4 388/3/4 395/3/4
f 389/2/4 390/2/4 397/2/4
f 397/2/4 390/2/4 398/2/4
f 391/3/4 392/3/4 400/3/4
f 400/3/4 392/3/4 401/3/4
f 395/3/4 396/3/4 404/3/4
f 404/3/4 396/3/4 405/3/4
f 398/2/4 399/2/4 407/2/4
f 407/2/4 399/2/4 408/2/4
f 401/3/4 402/3/4 409/3/4
f 409/3/4 402/3/4 410/3/4
f 403/3/4 404/3/4 411/3/4
f 411/3/4 404/3/4 412/3/4
f 406/2/4 407/2/4 413/2/4
f 413/2/4 407/2/4 414/2/4
f 410/3/4 411/3/4 415/3/4
f 415/3/4 411/3/4 416/3/4
f 417/3/4 418/3/4 422/3/4
f 422/3/4 418/3/4 423/3/4
f 419/2/4 420/2/4 425/2/4
f 423/3/4 424/3/4 427/3/4
f 421/3/4 422/3/4 427/3/4
f 422/3/4 423/3/4 427/3/4
f 427/3/4 424/3/4 428/3/4
f 428/3/4 424/3/4 429/3/4
f 429/3/4 424/3/4 430/3/4
f 425/2/4 426/2/4 431/2/4
f 419/2/4 425/2/4 431/2/4
f 431/2/4 426/2/4 432/2/4
f 428/3/4 429/3/4 433/3/4
f 433/3/4 429/3/4 434/3/4
f 419/2/4 431/2/4 435/2/4
f 435/2/4 431/2/4 436/2/4
f 437/3/4 438/3/4 439/3/4
f 439/3/4 438/3/4 440/3/4
f 444/3/5 442/3/5 441/3/5
f 445/3/5 442/3/5 444/3/5
f 447/3/5 444/3/5 443/3/5
f 447/3/5 446/3/5 445/3/5
f 447/3/5 445/3/5 444/3/5
f 448/3/5 446/3/5 447/3/5
f 449/3/5 446/3/5 448/3/5
f 450/3/5 446/3/5 449/3/5
f 451/3/5 449/3/5 448/3/5
f 452/3/5 449/3/5 451/3/5
f 456/3/5 454/3/5 453/3/5
f 457/3/5 454/3/5 456/3/5
f 460/3/5 456/3/5 455/3/5
f 461/3/5 456/3/5 460/3/5
f 462/3/5 458/3/5 457/3/5
f 463/3/5 458/3/5 462/3/5
f 465/3/5 460/3/5 459/3/5
f 466/3/5 460/3/5 465/3/5
f 469/3/5 464/3/5 463/3/5
f 470/3/5 464/3/5 469/3/5
f 471/3/5 467/3/5 466/3/5
f 472/3/5 467/3/5 471/3/5
f 473/3/5 469/3/5 468/3/5
f 474/3/5 469/3/5 473/3/5
f 475/3/5 473/3/5 472/3/5
f 476/3/5 473/3/5 475/3/5
f 482/3/5 478/3/5 477/3/5
f 483/3/5 478/3/5 482/3/5
f 484/3/5 480/3/5 479/3/5
f 485/3/5 480/3/5 484/3/5
f 487/3/5 482/3/5 481/3/5
f 488/3/5 482/3/5 487/3/5
f 489/3/5 486/3/5 485/3/5
f 490/3/5 486/3/5 489/3/5
f 495/3/5 492/3/5 491/3/5
f 496/3/5 492/3/5 495/3/5
f 499/3/5 494/3/5 493/3/5
f 500/3/5 494/3/5 499/3/5
f 501/3/5 497/3/5 496/3/5
f 502/3/5 497/3/5 501/3/5
f 503/3/5 499/3/5 498/3/5
f 504/3/5 499/3/5 503/3/5
f 507/3/5 506/3/5 505/3/5
f 508/3/5 506/3/5 507/3/5
f 509/3/5 507/3/5 505/3/5
f 510/3/5 506/3/5 508/3/5
f 511/3/5 509/3/5 505/3/5
f 511/3/5 510/3/5 509/3/5
f 512/3/5 506/3/5 510/3/5
f 512/3/5 510/3/5 511/3/5
f 515/2/5 514/2/5 513/2/5
f 516/2/5 514/2/5 515/2/5
f 517/3/6 518/3/6 522/3/6
f 522/3/6 518/3/6 523/3/6
f 519/3/6 520/3/6 524/3/6
f 524/3/6 520/3/6 525/3/6
f 521/3/6 522/3/6 527/3/6
f 527/3/6 522/3/6 528/3/6
f 525/3/6 526/3/6 529/3/6
f 529/3/6 526/3/6 530/3/6
f 531/3/6 532/3/6 535/3/6
f 535/3/6 532/3/6 536/3/6
f 533/3/6 534/3/6 539/3/6
f 539/3/6 534/3/6 540/3/6
f 536/3/6 537/3/6 541/3/6
f 541/3/6 537/3/6 542/3/6
f 538/3/6 539/3/6 543/3/6
f 543/3/6 539/3/6 544/3/6
f 545/3/6 546/3/6 548/3/6
f 548/3/6 546/3/6 549/3/6
f 547/3/6 548/3/6 552/3/6
f 552/3/6 548/3/6 553/3/6
f 549/3/6 550/3/6 554/3/6
f 554/3/6 550/3/6 555/3/6
f 551/3/6 552/3/6 557/3/6
f 557/3/6 552/3/6 558/3/6
f 555/3/6 556/3/6 561/3/6
f 561/3/6 556/3/6 562/3/6
f 558/3/6 559/3/6 563/3/6
f 563/3/6 559/3/6 564/3/6
f 560/3/6 561/3/6 565/3/6
f 565/3/6 561/3/6 566/3/6
f 564/3/6 565/3/6 567/3/6
f 567/3/6 565/3/6 568/3/6
f 569/3/6 570/3/6 572/3/6
f 572/3/6 570/3/6 573/3/6
f 571/3/6 572/3/6 575/3/6
f 575/3/6 572/3/6 576/3/6
f 573/3/6 574/3/6 577/3/6
f 577/3/6 574/3/6 578/3/6
f 576/3/6 577/3/6 579/3/6
f 579/3/6 577/3/6 580/3/6
f 581/3/6 582/3/6 583/3/6
f 583/3/6 582/3/6 584/3/6
f 584/3/6 582/3/6 586/3/6
f 585/3/6 586/3/6 587/3/6
f 586/3/6 582/3/6 588/3/6
f 587/3/6 586/3/6 588/3/6
f 581/3/6 583/3/6 589/3/6
f 588/3/6 582/3/6 590/3/6
f 581/3/6 589/3/6 591/3/6
f 589/3/6 590/3/6 591/3/6
f 590/3/6 582/3/6 592/3/6
f 591/3/6 590/3/6 592/3/6
f 593/3/6 594/3/6 595/3/6
f 595/3/6 594/3/6 596/3/6
f 597/3/6 598/3/6 599/3/6
f 599/3/6 598/3/6 600/3/6
f 601/3/6 602/3/6 603/3/6
f 603/3/6 602/3/6 604/3/6
f 605/3/6 606/3/6 607/3/6
f 607/3/6 606/3/6 608/3/6
f 609/2/6 610/2/6 613/2/6
f 613/2/6 610/2/6 614/2/6
f 611/2/6 612/2/6 615/2/6
f 615/2/6 612/2/6 616/2/6
f 617/2/6 618/2/6 621/2/6
f 621/2/6 618/2/6 622/2/6
f 619/2/6 620/2/6 623/2/6
f 623/2/6 620/2/6 624/2/6
f 625/2/6 626/2/6 628/2/6
f 628/2/6 626/2/6 629/2/6
f 627/2/6 628/2/6 631/2/6
f 631/2/6 628/2/6 632/2/6
f 629/2/6 630/2/6 633/2/6
f 633/2/6 630/2/6 634/2/6
f 635/2/6 636/2/6 639/2/6
f 639/2/6 636/2/6 640/2/6
f 637/2/6 638/2/6 641/2/6
f 641/2/6 638/2/6 642/2/6
f 640/2/6 641/2/6 643/2/6
f 643/2/6 641/2/6 644/2/6
f 645/2/6 646/2/6 648/2/6
f 648/2/6 646/2/6 649/2/6
f 647/2/6 648/2/6 651/2/6
f 651/2/6 648/2/6 652/2/6
f 649/2/6 650/2/6 653/2/6
f 653/2/6 650/2/6 654/2/6
f 652/2/6 653/2/6 655/2/6
f 655/2/6 653/2/6 656/2/6
f 657/2/6 658/2/6 659/2/6
f 659/2/6 658/2/6 660/2/6
